<?xml version="1.0" encoding="utf-8"?>
<!-- Generator: Adobe Illustrator 16.0.0, SVG Export Plug-In . SVG Version: 6.00 Build 0)  -->
<!DOCTYPE svg PUBLIC "-//W3C//DTD SVG 1.1//EN" "http://www.w3.org/Graphics/SVG/1.1/DTD/svg11.dtd">
<svg version="1.1" id="Layer_1" xmlns="http://www.w3.org/2000/svg" xmlns:xlink="http://www.w3.org/1999/xlink" x="0px" y="0px"
	 width="50px" height="50px" viewBox="0 0 50 50" enable-background="new 0 0 50 50" xml:space="preserve">
<g>
	<path fill="#F7921E" d="M22.593,48.788l22.921-8.567c1.002-0.375,1.852-1.641,1.818-2.71L46.581,13.83
		c-0.02-0.632-0.347-1.009-0.874-1.009c-0.144,0-0.299,0.027-0.461,0.082l-24.065,8.08c-0.984,0.331-1.783,1.529-1.709,2.565
		l1.739,24.354C21.269,48.706,21.849,49.066,22.593,48.788z"/>
	<path fill="#F7921E" d="M15.43,20.061l-12.447-9.3c-0.125-0.094-0.229-0.154-0.308-0.192c-0.009,0.087-0.012,0.207,0.002,0.362
		L4.81,33.99c0.114,1.235,1.043,3.023,1.988,3.826l12.155,10.335c0.078,0.066,0.147,0.117,0.207,0.157
		c0.003-0.072,0.002-0.159-0.005-0.26l-1.739-24.353C17.33,22.485,16.402,20.787,15.43,20.061z"/>
	<path d="M31.253,1.83c-0.672-0.432-1.782-0.711-2.828-0.711c-0.47,0-0.9,0.057-1.242,0.164L4.329,8.451
		C3.98,8.561,3.844,8.691,3.824,8.729c0,0,0,0,0.001,0c0.018,0,0.105,0.167,0.392,0.381l12.447,9.3
		c0.636,0.476,1.703,0.782,2.719,0.782c0.43,0,0.825-0.056,1.143-0.163l24.064-8.081c0.232-0.078,0.359-0.158,0.425-0.209
		c-0.051-0.066-0.155-0.175-0.36-0.306L31.253,1.83z"/>
</g>
</svg>
